<svg xmlns="http://www.w3.org/2000/svg" version="1.1" xmlns:xlink="http://www.w3.org/1999/xlink" width="1000" height="1000"><g clip-path="url(#SvgjsClipPath1335)"><rect width="1000" height="1000" fill="#ffffff"></rect><g transform="matrix(3.2142857142857144,0,0,3.2142857142857144,50,193.03571428571428)"><svg xmlns="http://www.w3.org/2000/svg" version="1.1" xmlns:xlink="http://www.w3.org/1999/xlink" width="280" height="191"><svg width="280" height="191" viewBox="0 0 280 191" fill="none" xmlns="http://www.w3.org/2000/svg">
<path d="M58.624 102.341C63.0614 102.341 67.1148 103.28 70.7842 105.157C74.5387 106.949 77.4829 109.509 79.6162 112.837C81.8349 116.165 82.9443 119.878 82.9443 123.974C82.9442 134.811 78.0369 141.637 68.2236 144.453V144.965C79.4023 147.525 84.9922 154.864 84.9922 166.981C84.9922 171.589 83.8401 175.686 81.5361 179.27C79.3175 182.768 76.2454 185.498 72.3203 187.461C68.395 189.424 64.0849 190.405 59.3916 190.405H0V102.341H58.624ZM175.785 123.461H127.913V135.621H168.873V155.846H127.913V169.285H176.681V190.405H99.625V102.341H175.785V123.461ZM253.696 145.733V102.341H279.68V190.405H254.977L217.984 147.653V190.405H192V102.341H216.704L253.696 145.733ZM28.2881 169.925H49.792C51.6693 169.925 53.2057 169.285 54.4004 168.005C55.6801 166.64 56.3202 164.976 56.3203 163.014V161.733C56.3203 159.771 55.6803 158.149 54.4004 156.869C53.2057 155.504 51.6693 154.821 49.792 154.821H28.2881V169.925ZM28.2881 136.646H47.7441C49.6214 136.645 51.1579 136.006 52.3525 134.726C53.6325 133.36 54.2724 131.696 54.2725 129.733V128.453C54.2724 126.576 53.6325 124.997 52.3525 123.717C51.0726 122.351 49.5361 121.669 47.7441 121.669H28.2881V136.646ZM58.624 0C63.0614 0 67.1148 0.939072 70.7842 2.81641C74.5388 4.6084 77.4829 7.16815 79.6162 10.4961C81.8348 13.824 82.9443 17.536 82.9443 21.6318C82.9443 32.4692 78.037 39.2963 68.2236 42.1123V42.624C79.4023 45.184 84.9922 52.5233 84.9922 64.6406C84.9921 69.2483 83.8399 73.3439 81.5361 76.9277C79.3175 80.4263 76.2455 83.1575 72.3203 85.1201C68.395 87.0828 64.0849 88.0645 59.3916 88.0645H0V0H58.624ZM175.785 21.1201H127.913V33.2803H168.873V53.5039H127.913V66.9443H176.681V88.0645H99.625V0H175.785V21.1201ZM28.2881 67.584H49.792C51.6693 67.584 53.2057 66.9441 54.4004 65.6641C55.6802 64.2988 56.3203 62.6344 56.3203 60.6719V59.3926C56.3203 57.43 55.6802 55.8083 54.4004 54.5283C53.2057 53.163 51.6693 52.4805 49.792 52.4805H28.2881V67.584ZM28.2881 34.3047H47.7441C49.6214 34.3047 51.1579 33.6638 52.3525 32.3838C53.6322 31.0186 54.2724 29.3549 54.2725 27.3926V26.1123C54.2725 24.235 53.6325 22.656 52.3525 21.376C51.0726 20.0107 49.5361 19.3281 47.7441 19.3281H28.2881V34.3047Z" fill="#0A0D10"></path>
</svg></svg></g></g><defs><clipPath id="SvgjsClipPath1335"><rect width="1000" height="1000" x="0" y="0" rx="0" ry="0"></rect></clipPath></defs></svg>