<svg xmlns="http://www.w3.org/2000/svg" version="1.1" xmlns:xlink="http://www.w3.org/1999/xlink" width="55" height="36"><svg width="55" height="36" viewBox="0 0 55 36" fill="none" xmlns="http://www.w3.org/2000/svg">
<path d="M1.776 17V0.487999H12.768C13.6 0.487999 14.36 0.664 15.048 1.016C15.736 1.352 16.288 1.824 16.704 2.432C17.12 3.04 17.328 3.744 17.328 4.544C17.328 5.344 17.2 6 16.944 6.512C16.688 7.024 16.352 7.432 15.936 7.736C15.52 8.024 15.064 8.24 14.568 8.384V8.48C15.144 8.608 15.664 8.832 16.128 9.152C16.608 9.456 16.992 9.888 17.28 10.448C17.568 11.008 17.712 11.728 17.712 12.608C17.712 13.488 17.496 14.256 17.064 14.912C16.632 15.568 16.056 16.08 15.336 16.448C14.616 16.816 13.808 17 12.912 17H1.776ZM7.08 13.16H11.112C11.48 13.16 11.776 13.032 12 12.776C12.224 12.52 12.336 12.136 12.336 11.624C12.336 11.384 12.28 11.168 12.168 10.976C12.072 10.768 11.928 10.608 11.736 10.496C11.56 10.384 11.352 10.328 11.112 10.328H7.08V13.16ZM7.08 6.92H10.728C10.984 6.92 11.2 6.864 11.376 6.752C11.552 6.624 11.688 6.448 11.784 6.224C11.896 6 11.952 5.72 11.952 5.384C11.952 5.032 11.832 4.736 11.592 4.496C11.352 4.24 11.064 4.112 10.728 4.112H7.08V6.92ZM20.5277 17V0.487999H34.8077V4.448H25.8317V6.728H33.5117V10.52H25.8317V13.04H34.9757V17H20.5277Z" fill="#0A0D10"></path>
<path d="M1.776 35.784V19.272H12.768C13.6 19.272 14.36 19.448 15.048 19.8C15.736 20.136 16.288 20.608 16.704 21.216C17.12 21.824 17.328 22.528 17.328 23.328C17.328 24.128 17.2 24.784 16.944 25.296C16.688 25.808 16.352 26.216 15.936 26.52C15.52 26.808 15.064 27.024 14.568 27.168V27.264C15.144 27.392 15.664 27.616 16.128 27.936C16.608 28.24 16.992 28.672 17.28 29.232C17.568 29.792 17.712 30.512 17.712 31.392C17.712 32.272 17.496 33.04 17.064 33.696C16.632 34.352 16.056 34.864 15.336 35.232C14.616 35.6 13.808 35.784 12.912 35.784H1.776ZM7.08 31.944H11.112C11.48 31.944 11.776 31.816 12 31.56C12.224 31.304 12.336 30.92 12.336 30.408C12.336 30.168 12.28 29.952 12.168 29.76C12.072 29.552 11.928 29.392 11.736 29.28C11.56 29.168 11.352 29.112 11.112 29.112H7.08V31.944ZM7.08 25.704H10.728C10.984 25.704 11.2 25.648 11.376 25.536C11.552 25.408 11.688 25.232 11.784 25.008C11.896 24.784 11.952 24.504 11.952 24.168C11.952 23.816 11.832 23.52 11.592 23.28C11.352 23.024 11.064 22.896 10.728 22.896H7.08V25.704ZM20.5277 35.784V19.272H34.8077V23.232H25.8317V25.512H33.5117V29.304H25.8317V31.824H34.9757V35.784H20.5277ZM37.776 35.784V19.272H42.288L47.424 25.2C47.568 25.36 47.76 25.592 48 25.896C48.24 26.2 48.48 26.512 48.72 26.832C48.976 27.136 49.168 27.384 49.296 27.576L49.416 27.528C49.4 27.08 49.392 26.64 49.392 26.208C49.392 25.76 49.392 25.424 49.392 25.2V19.272H54.216V35.784H49.728L43.944 29.184C43.672 28.864 43.44 28.576 43.248 28.32C43.056 28.048 42.872 27.792 42.696 27.552L42.576 27.6C42.592 27.904 42.6 28.208 42.6 28.512C42.6 28.816 42.6 29.04 42.6 29.184V35.784H37.776Z" fill="#0A0D10"></path>
</svg><style>@media (prefers-color-scheme: light) { :root { filter: none; } }
@media (prefers-color-scheme: dark) { :root { filter: none; } }
</style></svg>